# xmcd CD database file
#
# Track frame offsets:
#	150
#	15847
#	29752
#	38501
#	47957
#	56120
#	68155
#	77124
#	90944
#	99864
#	113722
#	123759
#	134821
#	141068
#	156171
#	167654
#	175308
#	189558
#	194208
#	202946
#	212111
#	218823
#	228957
#	240523
#	248780
#	257167
#	262141
#	270442
#	276750
#	290198
#	304342
#	311399
#	322248
#	333678
#	345038
#
# Disc length: 4708 seconds
#
# Revision: 0
# Processed by: cddbd v1.5.2PL0 Copyright (c) Steve Scherf et al.
# Submitted via: CDex 1.70beta2
#
DISCID=0a126223
DTITLE=Dawson, Dave - Cdn. - Cowboy Songs
DYEAR=1900
DGENRE=Country
TTITLE0='N'Air Again
TTITLE1=He Road the Strawbewrry Roan
TTITLE2=Cowboy's Night to Howl
TTITLE3=I Ride Old Paint
TTITLE4=Yodelling Hillbilly
TTITLE5=Cool Water
TTITLE6=Teh Outlaw Stampede
TTITLE7=Teh Fate of Old Strawberry Roan
TTITLE8=My Little Grey Haired mother IN the West
TTITLE9=Whe the Work's All Dome This Fall
TTITLE10=Cowboy For a Day
TTITLE11=I've Hung Up My Spurs and Saddle
TTITLE12=Red River Valley
TTITLE13=I Bought A Rock For A Rocky Mountain Girl
TTITLE14=A Cowboy's Best Friend Is His Pony
TTITLE15=West of Rainbow Trail
TTITLE16=Yodelling Cowboy
TTITLE17=Land of My Boyhood dreams
TTITLE18=Teh Yodelling Ranger
TTITLE19=When the Cactus Is In Bloom
TTITLE20=Pairie Lullabye
TTITLE21=Cowhand's Last Ride
TTITLE22=There's A Love Knot In My Lariet
TTITLE23=Queen of the Pairie
TTITLE24=Ramblin' Cowboy
TTITLE25=Blue Canadian Rockies
TTITLE26=Little Yoho Lady
TTITLE27=Great To Be Back In the Saddle
TTITLE28=Cowboy Jack
TTITLE29=Strawberry Roan
TTITLE30=We'll Meet Again On Peaceful Valley Trail
TTITLE31=Farmer's Lament
TTITLE32=Little Joe the Wrangler
TTITLE33=Mother Queen of My Heart
TTITLE34=Twilight On the Pairie
EXTD=
EXTT0=
EXTT1=
EXTT2=
EXTT3=
EXTT4=
EXTT5=
EXTT6=
EXTT7=
EXTT8=
EXTT9=
EXTT10=
EXTT11=
EXTT12=
EXTT13=
EXTT14=
EXTT15=
EXTT16=
EXTT17=
EXTT18=
EXTT19=
EXTT20=
EXTT21=
EXTT22=
EXTT23=
EXTT24=
EXTT25=
EXTT26=
EXTT27=
EXTT28=
EXTT29=
EXTT30=
EXTT31=
EXTT32=
EXTT33=
EXTT34=
PLAYORDER=
